# xmcd
#
# Track frame offsets: 
#        150
#        23352
#        48885
#        72292
#        93725
#        119905
#        145665
#        171192
#        191402
#        214890
#        232802
#        255925
#
# Disc length: 3564 seconds
#
# Revision: 1
# Processed by: cddbd v1.5.2PL0 Copyright (c) Steve Scherf et al.
# Submitted via: ExactAudioCopy v0.99pb5
#
DISCID=9f0dea0c
DTITLE=Joe Sample Featuring Lalah Hathaway - The Song Lives On (Japan)
DYEAR=1999
DGENRE=Blues
TTITLE0=The Song Lives On
TTITLE1=Fever
TTITLE2=Come Along With Me
TTITLE3=Living In Blue
TTITLE4=Street Life
TTITLE5=When You Life Was Low
TTITLE6=One Day I'll Fly Away
TTITLE7=When The World Turns Blue
TTITLE8=For All We Know
TTITLE9=Bitter Sweet
TTITLE10=A Long Way From Home
TTITLE11=It's A Sin To Tell A Lie (Bonus Track)
EXTD=
EXTT0=
EXTT1=
EXTT2=
EXTT3=
EXTT4=
EXTT5=
EXTT6=
EXTT7=
EXTT8=
EXTT9=
EXTT10=
EXTT11=
PLAYORDER=
